%TF.GenerationSoftware,KiCad,Pcbnew,9.0.2*%
%TF.CreationDate,2026-01-27T10:49:56+01:00*%
%TF.ProjectId,test,74657374-2e6b-4696-9361-645f70636258,rev?*%
%TF.SameCoordinates,Original*%
%TF.FileFunction,Copper,L2,Bot*%
%TF.FilePolarity,Positive*%
%FSLAX46Y46*%
G04 Gerber Fmt 4.6, Leading zero omitted, Abs format (unit mm)*
G04 Created by KiCad (PCBNEW 9.0.2) date 2026-01-27 10:49:56*
%MOMM*%
%LPD*%
G01*
G04 APERTURE LIST*
G04 Aperture macros list*
%AMRoundRect*
0 Rectangle with rounded corners*
0 $1 Rounding radius*
0 $2 $3 $4 $5 $6 $7 $8 $9 X,Y pos of 4 corners*
0 Add a 4 corners polygon primitive as box body*
4,1,4,$2,$3,$4,$5,$6,$7,$8,$9,$2,$3,0*
0 Add four circle primitives for the rounded corners*
1,1,$1+$1,$2,$3*
1,1,$1+$1,$4,$5*
1,1,$1+$1,$6,$7*
1,1,$1+$1,$8,$9*
0 Add four rect primitives between the rounded corners*
20,1,$1+$1,$2,$3,$4,$5,0*
20,1,$1+$1,$4,$5,$6,$7,0*
20,1,$1+$1,$6,$7,$8,$9,0*
20,1,$1+$1,$8,$9,$2,$3,0*%
G04 Aperture macros list end*
%TA.AperFunction,ComponentPad*%
%ADD10R,1.700000X1.700000*%
%TD*%
%TA.AperFunction,ComponentPad*%
%ADD11C,1.700000*%
%TD*%
%TA.AperFunction,SMDPad,CuDef*%
%ADD12RoundRect,0.218750X0.218750X0.256250X-0.218750X0.256250X-0.218750X-0.256250X0.218750X-0.256250X0*%
%TD*%
%TA.AperFunction,ComponentPad*%
%ADD13C,2.200000*%
%TD*%
%TA.AperFunction,SMDPad,CuDef*%
%ADD14RoundRect,0.218750X0.256250X-0.218750X0.256250X0.218750X-0.256250X0.218750X-0.256250X-0.218750X0*%
%TD*%
%TA.AperFunction,ViaPad*%
%ADD15C,0.600000*%
%TD*%
%TA.AperFunction,Conductor*%
%ADD16C,0.400000*%
%TD*%
G04 APERTURE END LIST*
D10*
%TO.P,J2,1,Pin_1*%
%TO.N,C2*%
X118480000Y-90350000D03*
D11*
%TO.P,J2,2,Pin_2*%
%TO.N,C1*%
X118480000Y-87810000D03*
%TO.P,J2,3,Pin_3*%
%TO.N,L2*%
X118480000Y-85270000D03*
%TO.P,J2,4,Pin_4*%
%TO.N,GND*%
X118480000Y-82730000D03*
%TO.P,J2,5,Pin_5*%
%TO.N,L1*%
X118480000Y-80190000D03*
%TD*%
D12*
%TO.P,D4,1,K*%
%TO.N,C2*%
X102590000Y-100710000D03*
%TO.P,D4,2,A*%
%TO.N,Net-(D4-A)*%
X101015000Y-100710000D03*
%TD*%
D13*
%TO.P,SW3,1,1*%
%TO.N,L1*%
X85920000Y-87190000D03*
%TO.P,SW3,2,2*%
%TO.N,Net-(D3-A)*%
X79570000Y-89730000D03*
%TD*%
%TO.P,SW2,1,1*%
%TO.N,L2*%
X105130000Y-67980000D03*
%TO.P,SW2,2,2*%
%TO.N,Net-(D2-A)*%
X98780000Y-70520000D03*
%TD*%
D14*
%TO.P,D2,1,K*%
%TO.N,C1*%
X99520000Y-82237500D03*
%TO.P,D2,2,A*%
%TO.N,Net-(D2-A)*%
X99520000Y-80662500D03*
%TD*%
D12*
%TO.P,D1,1,K*%
%TO.N,C1*%
X84050000Y-81310000D03*
%TO.P,D1,2,A*%
%TO.N,Net-(D1-A)*%
X82475000Y-81310000D03*
%TD*%
%TO.P,D3,1,K*%
%TO.N,C2*%
X83217500Y-100460000D03*
%TO.P,D3,2,A*%
%TO.N,Net-(D3-A)*%
X81642500Y-100460000D03*
%TD*%
D13*
%TO.P,SW1,1,1*%
%TO.N,L1*%
X85920000Y-67980000D03*
%TO.P,SW1,2,2*%
%TO.N,Net-(D1-A)*%
X79570000Y-70520000D03*
%TD*%
%TO.P,SW4,1,1*%
%TO.N,L2*%
X105130000Y-87190000D03*
%TO.P,SW4,2,2*%
%TO.N,Net-(D4-A)*%
X98780000Y-89730000D03*
%TD*%
D15*
%TO.N,GND*%
X110560000Y-81300000D03*
%TD*%
D16*
%TO.N,Net-(D1-A)*%
X77310000Y-70520000D02*
X79570000Y-70520000D01*
X75610000Y-72220000D02*
X77310000Y-70520000D01*
X82475000Y-81155000D02*
X75610000Y-74290000D01*
X82475000Y-81310000D02*
X82475000Y-81155000D01*
X75610000Y-74290000D02*
X75610000Y-72220000D01*
%TO.N,C1*%
X83490000Y-87710000D02*
X83490000Y-81870000D01*
X93560000Y-89350000D02*
X85130000Y-89350000D01*
X85130000Y-89350000D02*
X83490000Y-87710000D01*
X96360000Y-86550000D02*
X93560000Y-89350000D01*
X83490000Y-81870000D02*
X84050000Y-81310000D01*
X100480000Y-86550000D02*
X96360000Y-86550000D01*
%TO.N,L2*%
X105920000Y-87980000D02*
X105130000Y-87190000D01*
X114250000Y-86830000D02*
X113100000Y-87980000D01*
X113100000Y-87980000D02*
X105920000Y-87980000D01*
X115560000Y-86830000D02*
X114250000Y-86830000D01*
X117120000Y-85270000D02*
X115560000Y-86830000D01*
X118480000Y-85270000D02*
X117120000Y-85270000D01*
%TO.N,C1*%
X103280000Y-88840000D02*
X113700000Y-88840000D01*
X113700000Y-88840000D02*
X114730000Y-87810000D01*
X100990000Y-86550000D02*
X103280000Y-88840000D01*
X114730000Y-87810000D02*
X118480000Y-87810000D01*
X100480000Y-86550000D02*
X100990000Y-86550000D01*
%TO.N,Net-(D4-A)*%
X95000000Y-94695000D02*
X101015000Y-100710000D01*
X95000000Y-91210000D02*
X95000000Y-94695000D01*
X96480000Y-89730000D02*
X95000000Y-91210000D01*
X98780000Y-89730000D02*
X96480000Y-89730000D01*
%TO.N,Net-(D2-A)*%
X94660000Y-76770000D02*
X98552500Y-80662500D01*
X94660000Y-73030000D02*
X94660000Y-76770000D01*
X94620000Y-72990000D02*
X94660000Y-73030000D01*
X98552500Y-80662500D02*
X99520000Y-80662500D01*
X97090000Y-70520000D02*
X94620000Y-72990000D01*
X98780000Y-70520000D02*
X97090000Y-70520000D01*
%TO.N,C1*%
X99520000Y-85590000D02*
X100480000Y-86550000D01*
X99520000Y-82237500D02*
X99520000Y-85590000D01*
%TO.N,L1*%
X113160000Y-64800000D02*
X89100000Y-64800000D01*
X118480000Y-70120000D02*
X113160000Y-64800000D01*
X89100000Y-64800000D02*
X85920000Y-67980000D01*
X118480000Y-80190000D02*
X118480000Y-70120000D01*
%TO.N,C2*%
X118480000Y-95850000D02*
X118480000Y-90350000D01*
X113620000Y-100710000D02*
X118480000Y-95850000D01*
X102590000Y-100710000D02*
X113620000Y-100710000D01*
X85196500Y-102439000D02*
X83217500Y-100460000D01*
X102590000Y-100710000D02*
X100861000Y-102439000D01*
X100861000Y-102439000D02*
X85196500Y-102439000D01*
%TO.N,Net-(D3-A)*%
X80240000Y-99057500D02*
X81642500Y-100460000D01*
X80240000Y-91600000D02*
X80240000Y-99057500D01*
X79570000Y-90930000D02*
X80240000Y-91600000D01*
X79570000Y-89730000D02*
X79570000Y-90930000D01*
%TO.N,L1*%
X85920000Y-70250000D02*
X85920000Y-67980000D01*
X86550000Y-83610000D02*
X86550000Y-70880000D01*
X86550000Y-70880000D02*
X85920000Y-70250000D01*
X85920000Y-84240000D02*
X86550000Y-83610000D01*
X85920000Y-87190000D02*
X85920000Y-84240000D01*
X85920000Y-67980000D02*
X86580000Y-68640000D01*
%TO.N,L2*%
X105760000Y-71040000D02*
X105760000Y-81420000D01*
X105130000Y-70410000D02*
X105760000Y-71040000D01*
X105130000Y-82050000D02*
X105130000Y-87190000D01*
X105130000Y-67980000D02*
X105130000Y-70410000D01*
X105760000Y-81420000D02*
X105130000Y-82050000D01*
%TD*%
%TA.AperFunction,Conductor*%
%TO.N,GND*%
G36*
X122612539Y-63400185D02*
G01*
X122658294Y-63452989D01*
X122669500Y-63504500D01*
X122669500Y-102515500D01*
X122649815Y-102582539D01*
X122597011Y-102628294D01*
X122545500Y-102639500D01*
X101950519Y-102639500D01*
X101883480Y-102619815D01*
X101837725Y-102567011D01*
X101827781Y-102497853D01*
X101856806Y-102434297D01*
X101862838Y-102427819D01*
X102568838Y-101721819D01*
X102630161Y-101688334D01*
X102656519Y-101685500D01*
X102856669Y-101685500D01*
X102856674Y-101685500D01*
X102955185Y-101675436D01*
X103114787Y-101622549D01*
X103257891Y-101534281D01*
X103345353Y-101446819D01*
X103406676Y-101413334D01*
X103433034Y-101410500D01*
X113688996Y-101410500D01*
X113780040Y-101392389D01*
X113824328Y-101383580D01*
X113888069Y-101357177D01*
X113951807Y-101330777D01*
X113951808Y-101330776D01*
X113951811Y-101330775D01*
X114066543Y-101254114D01*
X119024114Y-96296543D01*
X119100775Y-96181811D01*
X119153580Y-96054328D01*
X119180500Y-95918994D01*
X119180500Y-95781006D01*
X119180500Y-91824499D01*
X119200185Y-91757460D01*
X119252989Y-91711705D01*
X119304500Y-91700499D01*
X119377871Y-91700499D01*
X119377872Y-91700499D01*
X119437483Y-91694091D01*
X119572331Y-91643796D01*
X119687546Y-91557546D01*
X119773796Y-91442331D01*
X119824091Y-91307483D01*
X119830500Y-91247873D01*
X119830499Y-89452128D01*
X119824091Y-89392517D01*
X119820956Y-89384112D01*
X119773797Y-89257671D01*
X119773793Y-89257664D01*
X119687547Y-89142455D01*
X119687544Y-89142452D01*
X119572335Y-89056206D01*
X119572328Y-89056202D01*
X119440917Y-89007189D01*
X119384983Y-88965318D01*
X119360566Y-88899853D01*
X119375418Y-88831580D01*
X119396563Y-88803332D01*
X119510104Y-88689792D01*
X119635051Y-88517816D01*
X119731557Y-88328412D01*
X119797246Y-88126243D01*
X119830500Y-87916287D01*
X119830500Y-87703713D01*
X119797246Y-87493757D01*
X119731557Y-87291588D01*
X119635051Y-87102184D01*
X119635049Y-87102181D01*
X119635048Y-87102179D01*
X119510109Y-86930213D01*
X119359786Y-86779890D01*
X119187820Y-86654951D01*
X119187115Y-86654591D01*
X119179054Y-86650485D01*
X119128259Y-86602512D01*
X119111463Y-86534692D01*
X119133999Y-86468556D01*
X119179054Y-86429515D01*
X119187816Y-86425051D01*
X119289526Y-86351155D01*
X119359786Y-86300109D01*
X119359788Y-86300106D01*
X119359792Y-86300104D01*
X119510104Y-86149792D01*
X119510106Y-86149788D01*
X119510109Y-86149786D01*
X119635048Y-85977820D01*
X119635047Y-85977820D01*
X119635051Y-85977816D01*
X119731557Y-85788412D01*
X119797246Y-85586243D01*
X119830500Y-85376287D01*
X119830500Y-85163713D01*
X119797246Y-84953757D01*
X119731557Y-84751588D01*
X119635051Y-84562184D01*
X119635049Y-84562181D01*
X119635048Y-84562179D01*
X119510109Y-84390213D01*
X119359786Y-84239890D01*
X119187817Y-84114949D01*
X119178504Y-84110204D01*
X119127707Y-84062230D01*
X119110912Y-83994409D01*
X119133449Y-83928274D01*
X119178507Y-83889232D01*
X119187555Y-83884622D01*
X119241716Y-83845270D01*
X119241717Y-83845270D01*
X118609408Y-83212962D01*
X118672993Y-83195925D01*
X118787007Y-83130099D01*
X118880099Y-83037007D01*
X118945925Y-82922993D01*
X118962962Y-82859408D01*
X119595270Y-83491717D01*
X119595270Y-83491716D01*
X119634622Y-83437554D01*
X119731095Y-83248217D01*
X119796757Y-83046130D01*
X119796757Y-83046127D01*
X119830000Y-82836246D01*
X119830000Y-82623753D01*
X119796757Y-82413872D01*
X119796757Y-82413869D01*
X119731095Y-82211782D01*
X119634624Y-82022449D01*
X119595270Y-81968282D01*
X119595269Y-81968282D01*
X118962962Y-82600590D01*
X118945925Y-82537007D01*
X118880099Y-82422993D01*
X118787007Y-82329901D01*
X118672993Y-82264075D01*
X118609409Y-82247037D01*
X119241716Y-81614728D01*
X119187547Y-81575373D01*
X119187547Y-81575372D01*
X119178500Y-81570763D01*
X119127706Y-81522788D01*
X119110912Y-81454966D01*
X119133451Y-81388832D01*
X119178508Y-81349793D01*
X119187816Y-81345051D01*
X119342509Y-81232661D01*
X119359786Y-81220109D01*
X119359792Y-81220104D01*
X119434377Y-81145519D01*
X119510104Y-81069792D01*
X119510106Y-81069788D01*
X119510109Y-81069786D01*
X119635048Y-80897820D01*
X119635047Y-80897820D01*
X119635051Y-80897816D01*
X119731557Y-80708412D01*
X119797246Y-80506243D01*
X119830500Y-80296287D01*
X119830500Y-80083713D01*
X119797246Y-79873757D01*
X119731557Y-79671588D01*
X119635051Y-79482184D01*
X119635049Y-79482181D01*
X119635048Y-79482179D01*
X119510109Y-79310213D01*
X119359786Y-79159890D01*
X119231615Y-79066770D01*
X119188949Y-79011441D01*
X119180500Y-78966452D01*
X119180500Y-70051004D01*
X119180499Y-70051002D01*
X119153581Y-69915677D01*
X119153579Y-69915670D01*
X119146768Y-69899228D01*
X119146766Y-69899222D01*
X119100778Y-69788196D01*
X119100777Y-69788195D01*
X119100775Y-69788189D01*
X119024114Y-69673457D01*
X119024112Y-69673454D01*
X113606545Y-64255887D01*
X113491807Y-64179222D01*
X113364332Y-64126421D01*
X113364322Y-64126418D01*
X113228996Y-64099500D01*
X113228994Y-64099500D01*
X113228993Y-64099500D01*
X89031007Y-64099500D01*
X89031005Y-64099500D01*
X88895677Y-64126418D01*
X88895667Y-64126421D01*
X88768192Y-64179222D01*
X88653454Y-64255887D01*
X86496183Y-66413158D01*
X86434860Y-66446643D01*
X86370184Y-66443408D01*
X86294787Y-66418910D01*
X86128903Y-66392636D01*
X86045962Y-66379500D01*
X85794038Y-66379500D01*
X85669626Y-66399205D01*
X85545214Y-66418910D01*
X85305616Y-66496760D01*
X85081151Y-66611132D01*
X84877350Y-66759201D01*
X84877345Y-66759205D01*
X84699205Y-66937345D01*
X84699201Y-66937350D01*
X84551132Y-67141151D01*
X84436760Y-67365616D01*
X84358910Y-67605214D01*
X84319500Y-67854038D01*
X84319500Y-68105961D01*
X84358910Y-68354785D01*
X84436760Y-68594383D01*
X84551132Y-68818848D01*
X84699201Y-69022649D01*
X84699205Y-69022654D01*
X84877345Y-69200794D01*
X84877350Y-69200798D01*
X85081153Y-69348869D01*
X85151794Y-69384862D01*
X85202590Y-69432836D01*
X85219500Y-69495347D01*
X85219500Y-70181006D01*
X85219500Y-70318994D01*
X85219500Y-70318996D01*
X85219499Y-70318996D01*
X85246418Y-70454322D01*
X85246421Y-70454332D01*
X85299222Y-70581807D01*
X85375887Y-70696545D01*
X85375888Y-70696546D01*
X85813181Y-71133838D01*
X85846666Y-71195161D01*
X85849500Y-71221519D01*
X85849500Y-72684093D01*
X85829815Y-72751132D01*
X85777011Y-72796887D01*
X85707853Y-72806831D01*
X85644297Y-72777806D01*
X85606523Y-72719028D01*
X85602561Y-72700279D01*
X85597020Y-72658192D01*
X85591993Y-72620007D01*
X85515639Y-72335048D01*
X85402743Y-72062493D01*
X85347309Y-71966479D01*
X85255238Y-71807006D01*
X85075647Y-71572959D01*
X85075641Y-71572952D01*
X84867047Y-71364358D01*
X84867040Y-71364352D01*
X84632993Y-71184761D01*
X84377510Y-71037258D01*
X84377500Y-71037254D01*
X84104961Y-70924364D01*
X84104954Y-70924362D01*
X84104952Y-70924361D01*
X83819993Y-70848007D01*
X83771113Y-70841571D01*
X83527513Y-70809500D01*
X83527506Y-70809500D01*
X83232494Y-70809500D01*
X83232486Y-70809500D01*
X82954085Y-70846153D01*
X82940007Y-70848007D01*
X82908143Y-70856545D01*
X82655048Y-70924361D01*
X82655038Y-70924364D01*
X82382499Y-71037254D01*
X82382489Y-71037258D01*
X82127006Y-71184761D01*
X81892959Y-71364352D01*
X81892952Y-71364358D01*
X81684358Y-71572952D01*
X81684352Y-71572959D01*
X81504761Y-71807006D01*
X81357258Y-72062489D01*
X81357254Y-72062499D01*
X81244364Y-72335038D01*
X81244361Y-72335048D01*
X81168785Y-72617106D01*
X81168008Y-72620004D01*
X81168006Y-72620015D01*
X81129500Y-72912486D01*
X81129500Y-73207513D01*
X81157054Y-73416800D01*
X81168007Y-73499993D01*
X81242212Y-73776930D01*
X81244361Y-73784951D01*
X81244364Y-73784961D01*
X81357254Y-74057500D01*
X81357258Y-74057510D01*
X81504761Y-74312993D01*
X81684352Y-74547040D01*
X81684358Y-74547047D01*
X81892952Y-74755641D01*
X81892959Y-74755647D01*
X82127006Y-74935238D01*
X82382489Y-75082741D01*
X82382490Y-75082741D01*
X82382493Y-75082743D01*
X82655048Y-75195639D01*
X82940007Y-75271993D01*
X83232494Y-75310500D01*
X83232501Y-75310500D01*
X83527499Y-75310500D01*
X83527506Y-75310500D01*
X83819993Y-75271993D01*
X84104952Y-75195639D01*
X84377507Y-75082743D01*
X84632994Y-74935238D01*
X84867042Y-74755646D01*
X85075646Y-74547042D01*
X85255238Y-74312994D01*
X85402743Y-74057507D01*
X85515639Y-73784952D01*
X85591993Y-73499993D01*
X85602561Y-73419720D01*
X85630827Y-73355824D01*
X85689152Y-73317353D01*
X85759017Y-73316522D01*
X85818240Y-73353594D01*
X85848019Y-73416800D01*
X85849500Y-73435906D01*
X85849500Y-83268481D01*
X85829815Y-83335520D01*
X85813181Y-83356162D01*
X85375887Y-83793455D01*
X85375884Y-83793458D01*
X85361939Y-83814330D01*
X85299228Y-83908182D01*
X85299221Y-83908195D01*
X85246421Y-84035667D01*
X85246418Y-84035677D01*
X85219500Y-84171004D01*
X85219500Y-85674651D01*
X85199815Y-85741690D01*
X85151796Y-85785135D01*
X85081153Y-85821130D01*
X84877350Y-85969201D01*
X84877345Y-85969205D01*
X84699205Y-86147345D01*
X84699201Y-86147350D01*
X84551132Y-86351151D01*
X84436758Y-86575620D01*
X84432430Y-86588943D01*
X84392992Y-86646618D01*
X84328633Y-86673815D01*
X84259786Y-86661899D01*
X84208311Y-86614654D01*
X84190500Y-86550623D01*
X84190500Y-82409500D01*
X84210185Y-82342461D01*
X84262989Y-82296706D01*
X84313528Y-82285711D01*
X84313526Y-82285660D01*
X84313837Y-82285644D01*
X84314500Y-82285500D01*
X84316669Y-82285500D01*
X84316674Y-82285500D01*
X84415185Y-82275436D01*
X84574787Y-82222549D01*
X84717891Y-82134281D01*
X84836781Y-82015391D01*
X84925049Y-81872287D01*
X84977936Y-81712685D01*
X84988000Y-81614174D01*
X84988000Y-81005826D01*
X84977936Y-80907315D01*
X84925049Y-80747713D01*
X84925045Y-80747707D01*
X84925044Y-80747704D01*
X84836783Y-80604612D01*
X84836780Y-80604608D01*
X84717891Y-80485719D01*
X84717887Y-80485716D01*
X84574795Y-80397455D01*
X84574789Y-80397452D01*
X84574787Y-80397451D01*
X84415185Y-80344564D01*
X84415183Y-80344563D01*
X84316681Y-80334500D01*
X84316674Y-80334500D01*
X83783326Y-80334500D01*
X83783318Y-80334500D01*
X83684816Y-80344563D01*
X83684815Y-80344564D01*
X83605719Y-80370773D01*
X83525215Y-80397450D01*
X83525204Y-80397455D01*
X83382112Y-80485716D01*
X83382108Y-80485719D01*
X83350181Y-80517647D01*
X83288858Y-80551132D01*
X83219166Y-80546148D01*
X83174819Y-80517647D01*
X83142891Y-80485719D01*
X83142887Y-80485716D01*
X82999795Y-80397455D01*
X82999789Y-80397452D01*
X82999787Y-80397451D01*
X82840185Y-80344564D01*
X82840183Y-80344563D01*
X82741681Y-80334500D01*
X82741674Y-80334500D01*
X82696519Y-80334500D01*
X82629480Y-80314815D01*
X82608838Y-80298181D01*
X76346819Y-74036162D01*
X76313334Y-73974839D01*
X76310500Y-73948481D01*
X76310500Y-72561519D01*
X76330185Y-72494480D01*
X76346819Y-72473838D01*
X77563838Y-71256819D01*
X77625161Y-71223334D01*
X77651519Y-71220500D01*
X78054652Y-71220500D01*
X78121691Y-71240185D01*
X78165137Y-71288205D01*
X78186408Y-71329952D01*
X78201132Y-71358848D01*
X78349201Y-71562649D01*
X78349205Y-71562654D01*
X78349207Y-71562656D01*
X78527344Y-71740793D01*
X78527345Y-71740794D01*
X78527344Y-71740794D01*
X78533661Y-71745383D01*
X78576327Y-71800714D01*
X78582305Y-71870327D01*
X78549699Y-71932122D01*
X78488860Y-71966479D01*
X78441378Y-71968174D01*
X78386611Y-71959500D01*
X78213389Y-71959500D01*
X78173728Y-71965781D01*
X78042302Y-71986597D01*
X77877552Y-72040128D01*
X77723211Y-72118768D01*
X77678843Y-72151004D01*
X77583072Y-72220586D01*
X77583070Y-72220588D01*
X77583069Y-72220588D01*
X77460588Y-72343069D01*
X77460588Y-72343070D01*
X77460586Y-72343072D01*
X77416859Y-72403256D01*
X77358768Y-72483211D01*
X77280128Y-72637552D01*
X77226597Y-72802302D01*
X77199500Y-72973389D01*
X77199500Y-73146611D01*
X77226598Y-73317701D01*
X77280127Y-73482445D01*
X77358768Y-73636788D01*
X77460586Y-73776928D01*
X77583072Y-73899414D01*
X77723212Y-74001232D01*
X77877555Y-74079873D01*
X78042299Y-74133402D01*
X78213389Y-74160500D01*
X78213390Y-74160500D01*
X78386610Y-74160500D01*
X78386611Y-74160500D01*
X78557701Y-74133402D01*
X78722445Y-74079873D01*
X78876788Y-74001232D01*
X79016928Y-73899414D01*
X79139414Y-73776928D01*
X79241232Y-73636788D01*
X79319873Y-73482445D01*
X79373402Y-73317701D01*
X79400500Y-73146611D01*
X79400500Y-72973389D01*
X79373402Y-72802299D01*
X79319873Y-72637555D01*
X79241232Y-72483212D01*
X79139414Y-72343072D01*
X79087482Y-72291140D01*
X79053997Y-72229817D01*
X79058981Y-72160125D01*
X79100853Y-72104192D01*
X79166317Y-72079775D01*
X79194561Y-72080986D01*
X79195212Y-72081089D01*
X79195215Y-72081090D01*
X79444038Y-72120500D01*
X79444039Y-72120500D01*
X79695961Y-72120500D01*
X79695962Y-72120500D01*
X79944785Y-72081090D01*
X80184379Y-72003241D01*
X80408845Y-71888870D01*
X80612656Y-71740793D01*
X80790793Y-71562656D01*
X80938870Y-71358845D01*
X81053241Y-71134379D01*
X81131090Y-70894785D01*
X81170500Y-70645962D01*
X81170500Y-70394038D01*
X81131090Y-70145215D01*
X81053241Y-69905621D01*
X81053239Y-69905618D01*
X81053239Y-69905616D01*
X80993404Y-69788185D01*
X80938870Y-69681155D01*
X80803873Y-69495347D01*
X80790798Y-69477350D01*
X80790794Y-69477345D01*
X80612654Y-69299205D01*
X80612649Y-69299201D01*
X80408848Y-69151132D01*
X80408847Y-69151131D01*
X80408845Y-69151130D01*
X80282086Y-69086543D01*
X80184383Y-69036760D01*
X79944785Y-68958910D01*
X79695962Y-68919500D01*
X79444038Y-68919500D01*
X79319626Y-68939205D01*
X79195214Y-68958910D01*
X78955616Y-69036760D01*
X78731151Y-69151132D01*
X78527350Y-69299201D01*
X78527345Y-69299205D01*
X78349205Y-69477345D01*
X78349201Y-69477350D01*
X78201132Y-69681151D01*
X78165137Y-69751795D01*
X78117162Y-69802591D01*
X78054652Y-69819500D01*
X77241004Y-69819500D01*
X77105677Y-69846418D01*
X77105667Y-69846421D01*
X76978192Y-69899222D01*
X76863454Y-69975887D01*
X75065887Y-71773454D01*
X74989222Y-71888192D01*
X74936421Y-72015667D01*
X74936418Y-72015677D01*
X74909500Y-72151004D01*
X74909500Y-72151007D01*
X74909500Y-74221006D01*
X74909500Y-74358994D01*
X74909500Y-74358996D01*
X74909499Y-74358996D01*
X74936418Y-74494322D01*
X74936421Y-74494332D01*
X74989222Y-74621807D01*
X75065887Y-74736545D01*
X75065888Y-74736546D01*
X81500681Y-81171338D01*
X81534166Y-81232661D01*
X81537000Y-81259019D01*
X81537000Y-81614181D01*
X81547063Y-81712683D01*
X81599950Y-81872284D01*
X81599955Y-81872295D01*
X81688216Y-82015387D01*
X81688219Y-82015391D01*
X81807108Y-82134280D01*
X81807112Y-82134283D01*
X81950204Y-82222544D01*
X81950207Y-82222545D01*
X81950213Y-82222549D01*
X82109815Y-82275436D01*
X82208326Y-82285500D01*
X82208331Y-82285500D01*
X82665500Y-82285500D01*
X82732539Y-82305185D01*
X82778294Y-82357989D01*
X82789500Y-82409500D01*
X82789500Y-87641006D01*
X82789500Y-87778994D01*
X82789500Y-87778996D01*
X82789499Y-87778996D01*
X82816418Y-87914322D01*
X82816421Y-87914332D01*
X82869222Y-88041807D01*
X82945887Y-88156545D01*
X84683454Y-89894112D01*
X84798190Y-89970776D01*
X84896790Y-90011617D01*
X84925671Y-90023580D01*
X84925672Y-90023580D01*
X84925677Y-90023582D01*
X84952545Y-90028925D01*
X84952551Y-90028926D01*
X84952591Y-90028934D01*
X85042937Y-90046905D01*
X85061006Y-90050500D01*
X85061007Y-90050500D01*
X93628996Y-90050500D01*
X93737457Y-90028925D01*
X93764328Y-90023580D01*
X93828069Y-89997177D01*
X93891807Y-89970777D01*
X93891808Y-89970776D01*
X93891811Y-89970775D01*
X94006543Y-89894114D01*
X96613838Y-87286819D01*
X96675161Y-87253334D01*
X96701519Y-87250500D01*
X100411006Y-87250500D01*
X100411007Y-87250500D01*
X100648481Y-87250500D01*
X100715520Y-87270185D01*
X100736162Y-87286819D01*
X102833453Y-89384111D01*
X102833454Y-89384112D01*
X102948192Y-89460777D01*
X103075667Y-89513578D01*
X103075672Y-89513580D01*
X103075676Y-89513580D01*
X103075677Y-89513581D01*
X103211003Y-89540500D01*
X103211006Y-89540500D01*
X113768996Y-89540500D01*
X113860040Y-89522389D01*
X113904328Y-89513580D01*
X113968069Y-89487177D01*
X114031807Y-89460777D01*
X114031808Y-89460776D01*
X114031811Y-89460775D01*
X114146543Y-89384114D01*
X114983838Y-88546819D01*
X115045161Y-88513334D01*
X115071519Y-88510500D01*
X117256453Y-88510500D01*
X117323492Y-88530185D01*
X117356769Y-88561614D01*
X117391842Y-88609887D01*
X117449892Y-88689788D01*
X117563430Y-88803326D01*
X117596915Y-88864649D01*
X117591931Y-88934341D01*
X117550059Y-88990274D01*
X117519083Y-89007189D01*
X117387669Y-89056203D01*
X117387664Y-89056206D01*
X117272455Y-89142452D01*
X117272452Y-89142455D01*
X117186206Y-89257664D01*
X117186202Y-89257671D01*
X117135908Y-89392517D01*
X117129501Y-89452116D01*
X117129501Y-89452123D01*
X117129500Y-89452135D01*
X117129500Y-91247870D01*
X117129501Y-91247876D01*
X117135908Y-91307483D01*
X117186202Y-91442328D01*
X117186206Y-91442335D01*
X117272452Y-91557544D01*
X117272455Y-91557547D01*
X117387664Y-91643793D01*
X117387671Y-91643797D01*
X117432618Y-91660561D01*
X117522517Y-91694091D01*
X117582127Y-91700500D01*
X117655500Y-91700499D01*
X117722538Y-91720183D01*
X117768294Y-91772986D01*
X117779500Y-91824499D01*
X117779500Y-95508481D01*
X117759815Y-95575520D01*
X117743181Y-95596162D01*
X113366162Y-99973181D01*
X113304839Y-100006666D01*
X113278481Y-100009500D01*
X103433034Y-100009500D01*
X103365995Y-99989815D01*
X103345353Y-99973181D01*
X103257891Y-99885719D01*
X103257887Y-99885716D01*
X103114795Y-99797455D01*
X103114789Y-99797452D01*
X103114787Y-99797451D01*
X102955185Y-99744564D01*
X102955183Y-99744563D01*
X102856681Y-99734500D01*
X102856674Y-99734500D01*
X102323326Y-99734500D01*
X102323318Y-99734500D01*
X102224816Y-99744563D01*
X102224815Y-99744564D01*
X102190986Y-99755774D01*
X102065215Y-99797450D01*
X102065204Y-99797455D01*
X101922112Y-99885716D01*
X101922108Y-99885719D01*
X101890181Y-99917647D01*
X101828858Y-99951132D01*
X101759166Y-99946148D01*
X101714819Y-99917647D01*
X101682891Y-99885719D01*
X101682887Y-99885716D01*
X101539795Y-99797455D01*
X101539789Y-99797452D01*
X101539787Y-99797451D01*
X101380185Y-99744564D01*
X101380183Y-99744563D01*
X101281681Y-99734500D01*
X101281674Y-99734500D01*
X101081519Y-99734500D01*
X101014480Y-99714815D01*
X100993838Y-99698181D01*
X95736819Y-94441162D01*
X95703334Y-94379839D01*
X95700500Y-94353481D01*
X95700500Y-91551519D01*
X95720185Y-91484480D01*
X95736819Y-91463838D01*
X96733838Y-90466819D01*
X96795161Y-90433334D01*
X96821519Y-90430500D01*
X97264652Y-90430500D01*
X97331691Y-90450185D01*
X97375137Y-90498205D01*
X97411132Y-90568848D01*
X97559201Y-90772649D01*
X97559205Y-90772654D01*
X97559207Y-90772656D01*
X97737344Y-90950793D01*
X97737345Y-90950794D01*
X97737344Y-90950794D01*
X97743661Y-90955383D01*
X97786327Y-91010714D01*
X97792305Y-91080327D01*
X97759699Y-91142122D01*
X97698860Y-91176479D01*
X97651378Y-91178174D01*
X97596611Y-91169500D01*
X97423389Y-91169500D01*
X97383728Y-91175781D01*
X97252302Y-91196597D01*
X97087552Y-91250128D01*
X96933211Y-91328768D01*
X96853256Y-91386859D01*
X96793072Y-91430586D01*
X96793070Y-91430588D01*
X96793069Y-91430588D01*
X96670588Y-91553069D01*
X96670588Y-91553070D01*
X96670586Y-91553072D01*
X96667335Y-91557547D01*
X96568768Y-91693211D01*
X96490128Y-91847552D01*
X96436597Y-92012302D01*
X96409500Y-92183389D01*
X96409500Y-92356611D01*
X96436598Y-92527701D01*
X96490127Y-92692445D01*
X96568768Y-92846788D01*
X96670586Y-92986928D01*
X96793072Y-93109414D01*
X96933212Y-93211232D01*
X97087555Y-93289873D01*
X97252299Y-93343402D01*
X97423389Y-93370500D01*
X97423390Y-93370500D01*
X97596610Y-93370500D01*
X97596611Y-93370500D01*
X97767701Y-93343402D01*
X97932445Y-93289873D01*
X98086788Y-93211232D01*
X98226928Y-93109414D01*
X98349414Y-92986928D01*
X98451232Y-92846788D01*
X98529873Y-92692445D01*
X98583402Y-92527701D01*
X98610500Y-92356611D01*
X98610500Y-92183389D01*
X98600854Y-92122486D01*
X100339500Y-92122486D01*
X100339500Y-92417513D01*
X100370637Y-92654014D01*
X100378007Y-92709993D01*
X100452212Y-92986930D01*
X100454361Y-92994951D01*
X100454364Y-92994961D01*
X100567254Y-93267500D01*
X100567258Y-93267510D01*
X100714761Y-93522993D01*
X100894352Y-93757040D01*
X100894358Y-93757047D01*
X101102952Y-93965641D01*
X101102959Y-93965647D01*
X101337006Y-94145238D01*
X101592489Y-94292741D01*
X101592490Y-94292741D01*
X101592493Y-94292743D01*
X101865048Y-94405639D01*
X102150007Y-94481993D01*
X102442494Y-94520500D01*
X102442501Y-94520500D01*
X102737499Y-94520500D01*
X102737506Y-94520500D01*
X103029993Y-94481993D01*
X103314952Y-94405639D01*
X103587507Y-94292743D01*
X103842994Y-94145238D01*
X104077042Y-93965646D01*
X104285646Y-93757042D01*
X104465238Y-93522994D01*
X104612743Y-93267507D01*
X104725639Y-92994952D01*
X104801993Y-92709993D01*
X104840500Y-92417506D01*
X104840500Y-92183389D01*
X106569500Y-92183389D01*
X106569500Y-92356611D01*
X106596598Y-92527701D01*
X106650127Y-92692445D01*
X106728768Y-92846788D01*
X106830586Y-92986928D01*
X106953072Y-93109414D01*
X107093212Y-93211232D01*
X107247555Y-93289873D01*
X107412299Y-93343402D01*
X107583389Y-93370500D01*
X107583390Y-93370500D01*
X107756610Y-93370500D01*
X107756611Y-93370500D01*
X107927701Y-93343402D01*
X108092445Y-93289873D01*
X108246788Y-93211232D01*
X108386928Y-93109414D01*
X108509414Y-92986928D01*
X108611232Y-92846788D01*
X108689873Y-92692445D01*
X108743402Y-92527701D01*
X108770500Y-92356611D01*
X108770500Y-92183389D01*
X108743402Y-92012299D01*
X108689873Y-91847555D01*
X108611232Y-91693212D01*
X108509414Y-91553072D01*
X108386928Y-91430586D01*
X108246788Y-91328768D01*
X108092445Y-91250127D01*
X107927701Y-91196598D01*
X107927699Y-91196597D01*
X107927698Y-91196597D01*
X107796271Y-91175781D01*
X107756611Y-91169500D01*
X107583389Y-91169500D01*
X107543728Y-91175781D01*
X107412302Y-91196597D01*
X107247552Y-91250128D01*
X107093211Y-91328768D01*
X107013256Y-91386859D01*
X106953072Y-91430586D01*
X106953070Y-91430588D01*
X106953069Y-91430588D01*
X106830588Y-91553069D01*
X106830588Y-91553070D01*
X106830586Y-91553072D01*
X106827335Y-91557547D01*
X106728768Y-91693211D01*
X106650128Y-91847552D01*
X106596597Y-92012302D01*
X106569500Y-92183389D01*
X104840500Y-92183389D01*
X104840500Y-92122494D01*
X104801993Y-91830007D01*
X104725639Y-91545048D01*
X104612743Y-91272493D01*
X104598534Y-91247883D01*
X104465238Y-91017006D01*
X104285647Y-90782959D01*
X104285641Y-90782952D01*
X104077047Y-90574358D01*
X104077040Y-90574352D01*
X103842993Y-90394761D01*
X103587510Y-90247258D01*
X103587500Y-90247254D01*
X103314961Y-90134364D01*
X103314954Y-90134362D01*
X103314952Y-90134361D01*
X103029993Y-90058007D01*
X102972972Y-90050500D01*
X102737513Y-90019500D01*
X102737506Y-90019500D01*
X102442494Y-90019500D01*
X102442486Y-90019500D01*
X102164085Y-90056153D01*
X102150007Y-90058007D01*
X101975428Y-90104785D01*
X101865048Y-90134361D01*
X101865038Y-90134364D01*
X101592499Y-90247254D01*
X101592489Y-90247258D01*
X101337006Y-90394761D01*
X101102959Y-90574352D01*
X101102952Y-90574358D01*
X100894358Y-90782952D01*
X100894352Y-90782959D01*
X100714761Y-91017006D01*
X100567258Y-91272489D01*
X100567254Y-91272499D01*
X100454364Y-91545038D01*
X100454361Y-91545048D01*
X100427902Y-91643797D01*
X100378008Y-91830004D01*
X100378006Y-91830015D01*
X100339500Y-92122486D01*
X98600854Y-92122486D01*
X98583402Y-92012299D01*
X98529873Y-91847555D01*
X98451232Y-91693212D01*
X98349414Y-91553072D01*
X98297482Y-91501140D01*
X98263997Y-91439817D01*
X98268981Y-91370125D01*
X98310853Y-91314192D01*
X98376317Y-91289775D01*
X98404561Y-91290986D01*
X98405212Y-91291089D01*
X98405215Y-91291090D01*
X98654038Y-91330500D01*
X98654039Y-91330500D01*
X98905961Y-91330500D01*
X98905962Y-91330500D01*
X99154785Y-91291090D01*
X99394379Y-91213241D01*
X99618845Y-91098870D01*
X99822656Y-90950793D01*
X100000793Y-90772656D01*
X100148870Y-90568845D01*
X100263241Y-90344379D01*
X100341090Y-90104785D01*
X100380500Y-89855962D01*
X100380500Y-89604038D01*
X100341090Y-89355215D01*
X100263241Y-89115621D01*
X100263239Y-89115618D01*
X100263239Y-89115616D01*
X100204074Y-88999500D01*
X100148870Y-88891155D01*
X100002566Y-88689784D01*
X100000798Y-88687350D01*
X100000794Y-88687345D01*
X99822654Y-88509205D01*
X99822649Y-88509201D01*
X99618848Y-88361132D01*
X99618847Y-88361131D01*
X99618845Y-88361130D01*
X99548747Y-88325413D01*
X99394383Y-88246760D01*
X99154785Y-88168910D01*
X99076703Y-88156543D01*
X98905962Y-88129500D01*
X98654038Y-88129500D01*
X98590901Y-88139500D01*
X98405214Y-88168910D01*
X98165616Y-88246760D01*
X97941151Y-88361132D01*
X97737350Y-88509201D01*
X97737345Y-88509205D01*
X97559205Y-88687345D01*
X97559201Y-88687350D01*
X97411132Y-88891151D01*
X97375137Y-88961795D01*
X97327162Y-89012591D01*
X97264652Y-89029500D01*
X96411004Y-89029500D01*
X96275677Y-89056418D01*
X96275667Y-89056421D01*
X96148192Y-89109222D01*
X96033454Y-89185887D01*
X94455887Y-90763454D01*
X94379222Y-90878192D01*
X94326421Y-91005667D01*
X94326418Y-91005679D01*
X94300830Y-91134320D01*
X94300829Y-91134327D01*
X94300829Y-91134328D01*
X94299500Y-91141007D01*
X94299500Y-94626006D01*
X94299500Y-94763994D01*
X94299500Y-94763996D01*
X94299499Y-94763996D01*
X94326418Y-94899322D01*
X94326421Y-94899332D01*
X94379222Y-95026807D01*
X94455887Y-95141545D01*
X94455888Y-95141546D01*
X100040681Y-100726338D01*
X100074166Y-100787661D01*
X100077000Y-100814019D01*
X100077000Y-101014181D01*
X100087063Y-101112683D01*
X100139950Y-101272284D01*
X100139955Y-101272295D01*
X100228216Y-101415387D01*
X100228219Y-101415391D01*
X100339647Y-101526819D01*
X100373132Y-101588142D01*
X100368148Y-101657834D01*
X100326276Y-101713767D01*
X100260812Y-101738184D01*
X100251966Y-101738500D01*
X85538019Y-101738500D01*
X85470980Y-101718815D01*
X85450338Y-101702181D01*
X84191819Y-100443662D01*
X84158334Y-100382339D01*
X84155500Y-100355981D01*
X84155500Y-100155831D01*
X84155499Y-100155818D01*
X84145436Y-100057316D01*
X84145436Y-100057315D01*
X84092549Y-99897713D01*
X84092545Y-99897707D01*
X84092544Y-99897704D01*
X84004283Y-99754612D01*
X84004280Y-99754608D01*
X83885391Y-99635719D01*
X83885387Y-99635716D01*
X83742295Y-99547455D01*
X83742289Y-99547452D01*
X83742287Y-99547451D01*
X83582685Y-99494564D01*
X83582683Y-99494563D01*
X83484181Y-99484500D01*
X83484174Y-99484500D01*
X82950826Y-99484500D01*
X82950818Y-99484500D01*
X82852316Y-99494563D01*
X82852315Y-99494564D01*
X82773219Y-99520773D01*
X82692715Y-99547450D01*
X82692704Y-99547455D01*
X82549612Y-99635716D01*
X82549608Y-99635719D01*
X82517681Y-99667647D01*
X82456358Y-99701132D01*
X82386666Y-99696148D01*
X82342319Y-99667647D01*
X82310391Y-99635719D01*
X82310387Y-99635716D01*
X82167295Y-99547455D01*
X82167289Y-99547452D01*
X82167287Y-99547451D01*
X82007685Y-99494564D01*
X82007683Y-99494563D01*
X81909181Y-99484500D01*
X81909174Y-99484500D01*
X81709019Y-99484500D01*
X81641980Y-99464815D01*
X81621338Y-99448181D01*
X80976819Y-98803662D01*
X80943334Y-98742339D01*
X80940500Y-98715981D01*
X80940500Y-92802797D01*
X80960185Y-92735758D01*
X81012989Y-92690003D01*
X81082147Y-92680059D01*
X81145703Y-92709084D01*
X81183477Y-92767862D01*
X81184260Y-92770653D01*
X81242212Y-92986930D01*
X81244361Y-92994951D01*
X81244364Y-92994961D01*
X81357254Y-93267500D01*
X81357258Y-93267510D01*
X81504761Y-93522993D01*
X81684352Y-93757040D01*
X81684358Y-93757047D01*
X81892952Y-93965641D01*
X81892959Y-93965647D01*
X82127006Y-94145238D01*
X82382489Y-94292741D01*
X82382490Y-94292741D01*
X82382493Y-94292743D01*
X82655048Y-94405639D01*
X82940007Y-94481993D01*
X83232494Y-94520500D01*
X83232501Y-94520500D01*
X83527499Y-94520500D01*
X83527506Y-94520500D01*
X83819993Y-94481993D01*
X84104952Y-94405639D01*
X84377507Y-94292743D01*
X84632994Y-94145238D01*
X84867042Y-93965646D01*
X85075646Y-93757042D01*
X85255238Y-93522994D01*
X85402743Y-93267507D01*
X85515639Y-92994952D01*
X85591993Y-92709993D01*
X85630500Y-92417506D01*
X85630500Y-92183389D01*
X87359500Y-92183389D01*
X87359500Y-92356611D01*
X87386598Y-92527701D01*
X87440127Y-92692445D01*
X87518768Y-92846788D01*
X87620586Y-92986928D01*
X87743072Y-93109414D01*
X87883212Y-93211232D01*
X88037555Y-93289873D01*
X88202299Y-93343402D01*
X88373389Y-93370500D01*
X88373390Y-93370500D01*
X88546610Y-93370500D01*
X88546611Y-93370500D01*
X88717701Y-93343402D01*
X88882445Y-93289873D01*
X89036788Y-93211232D01*
X89176928Y-93109414D01*
X89299414Y-92986928D01*
X89401232Y-92846788D01*
X89479873Y-92692445D01*
X89533402Y-92527701D01*
X89560500Y-92356611D01*
X89560500Y-92183389D01*
X89533402Y-92012299D01*
X89479873Y-91847555D01*
X89401232Y-91693212D01*
X89299414Y-91553072D01*
X89176928Y-91430586D01*
X89036788Y-91328768D01*
X88882445Y-91250127D01*
X88717701Y-91196598D01*
X88717699Y-91196597D01*
X88717698Y-91196597D01*
X88586271Y-91175781D01*
X88546611Y-91169500D01*
X88373389Y-91169500D01*
X88333728Y-91175781D01*
X88202302Y-91196597D01*
X88037552Y-91250128D01*
X87883211Y-91328768D01*
X87803256Y-91386859D01*
X87743072Y-91430586D01*
X87743070Y-91430588D01*
X87743069Y-91430588D01*
X87620588Y-91553069D01*
X87620588Y-91553070D01*
X87620586Y-91553072D01*
X87617335Y-91557547D01*
X87518768Y-91693211D01*
X87440128Y-91847552D01*
X87386597Y-92012302D01*
X87359500Y-92183389D01*
X85630500Y-92183389D01*
X85630500Y-92122494D01*
X85591993Y-91830007D01*
X85515639Y-91545048D01*
X85402743Y-91272493D01*
X85388534Y-91247883D01*
X85255238Y-91017006D01*
X85075647Y-90782959D01*
X85075641Y-90782952D01*
X84867047Y-90574358D01*
X84867040Y-90574352D01*
X84632993Y-90394761D01*
X84377510Y-90247258D01*
X84377500Y-90247254D01*
X84104961Y-90134364D01*
X84104954Y-90134362D01*
X84104952Y-90134361D01*
X83819993Y-90058007D01*
X83762972Y-90050500D01*
X83527513Y-90019500D01*
X83527506Y-90019500D01*
X83232494Y-90019500D01*
X83232486Y-90019500D01*
X82954085Y-90056153D01*
X82940007Y-90058007D01*
X82765428Y-90104785D01*
X82655048Y-90134361D01*
X82655038Y-90134364D01*
X82382499Y-90247254D01*
X82382489Y-90247258D01*
X82127006Y-90394761D01*
X81892959Y-90574352D01*
X81892952Y-90574358D01*
X81684358Y-90782952D01*
X81684352Y-90782959D01*
X81504761Y-91017006D01*
X81357258Y-91272489D01*
X81357254Y-91272499D01*
X81244364Y-91545038D01*
X81244361Y-91545048D01*
X81202709Y-91700499D01*
X81184275Y-91769295D01*
X81147910Y-91828956D01*
X81085063Y-91859485D01*
X81015688Y-91851190D01*
X80961810Y-91806705D01*
X80940535Y-91740153D01*
X80940500Y-91737202D01*
X80940500Y-91531004D01*
X80913581Y-91395677D01*
X80913580Y-91395676D01*
X80913580Y-91395672D01*
X80870261Y-91291090D01*
X80860778Y-91268195D01*
X80860776Y-91268191D01*
X80860775Y-91268189D01*
X80824060Y-91213241D01*
X80784114Y-91153457D01*
X80681685Y-91051028D01*
X80678845Y-91047762D01*
X80666002Y-91019772D01*
X80651249Y-90992753D01*
X80651566Y-90988309D01*
X80649708Y-90984258D01*
X80654036Y-90953770D01*
X80656233Y-90923061D01*
X80659010Y-90918738D01*
X80659530Y-90915082D01*
X80666690Y-90906788D01*
X80684730Y-90878718D01*
X80790793Y-90772656D01*
X80797477Y-90763457D01*
X80818365Y-90734705D01*
X80938870Y-90568845D01*
X81053241Y-90344379D01*
X81131090Y-90104785D01*
X81170500Y-89855962D01*
X81170500Y-89604038D01*
X81131090Y-89355215D01*
X81053241Y-89115621D01*
X81053239Y-89115618D01*
X81053239Y-89115616D01*
X80994074Y-88999500D01*
X80938870Y-88891155D01*
X80792566Y-88689784D01*
X80790798Y-88687350D01*
X80790794Y-88687345D01*
X80612654Y-88509205D01*
X80612649Y-88509201D01*
X80408848Y-88361132D01*
X80408847Y-88361131D01*
X80408845Y-88361130D01*
X80338747Y-88325413D01*
X80184383Y-88246760D01*
X79944785Y-88168910D01*
X79866703Y-88156543D01*
X79695962Y-88129500D01*
X79444038Y-88129500D01*
X79380901Y-88139500D01*
X79195214Y-88168910D01*
X78955616Y-88246760D01*
X78731151Y-88361132D01*
X78527350Y-88509201D01*
X78527345Y-88509205D01*
X78349205Y-88687345D01*
X78349201Y-88687350D01*
X78201132Y-88891151D01*
X78086760Y-89115616D01*
X78008910Y-89355214D01*
X77969500Y-89604038D01*
X77969500Y-89855962D01*
X77996049Y-90023582D01*
X78008910Y-90104785D01*
X78086760Y-90344383D01*
X78201132Y-90568848D01*
X78349201Y-90772649D01*
X78349205Y-90772654D01*
X78349207Y-90772656D01*
X78527344Y-90950793D01*
X78527345Y-90950794D01*
X78527344Y-90950794D01*
X78533661Y-90955383D01*
X78576327Y-91010714D01*
X78582305Y-91080327D01*
X78549699Y-91142122D01*
X78488860Y-91176479D01*
X78441378Y-91178174D01*
X78386611Y-91169500D01*
X78213389Y-91169500D01*
X78173728Y-91175781D01*
X78042302Y-91196597D01*
X77877552Y-91250128D01*
X77723211Y-91328768D01*
X77643256Y-91386859D01*
X77583072Y-91430586D01*
X77583070Y-91430588D01*
X77583069Y-91430588D01*
X77460588Y-91553069D01*
X77460588Y-91553070D01*
X77460586Y-91553072D01*
X77457335Y-91557547D01*
X77358768Y-91693211D01*
X77280128Y-91847552D01*
X77226597Y-92012302D01*
X77199500Y-92183389D01*
X77199500Y-92356611D01*
X77226598Y-92527701D01*
X77280127Y-92692445D01*
X77358768Y-92846788D01*
X77460586Y-92986928D01*
X77583072Y-93109414D01*
X77723212Y-93211232D01*
X77877555Y-93289873D01*
X78042299Y-93343402D01*
X78213389Y-93370500D01*
X78213390Y-93370500D01*
X78386610Y-93370500D01*
X78386611Y-93370500D01*
X78557701Y-93343402D01*
X78722445Y-93289873D01*
X78876788Y-93211232D01*
X79016928Y-93109414D01*
X79139414Y-92986928D01*
X79241232Y-92846788D01*
X79279998Y-92770704D01*
X79305015Y-92721606D01*
X79352989Y-92670809D01*
X79420810Y-92654014D01*
X79486945Y-92676551D01*
X79530397Y-92731266D01*
X79539500Y-92777900D01*
X79539500Y-98988506D01*
X79539500Y-99126494D01*
X79539500Y-99126496D01*
X79539499Y-99126496D01*
X79566418Y-99261822D01*
X79566421Y-99261832D01*
X79619222Y-99389307D01*
X79695887Y-99504045D01*
X79695888Y-99504046D01*
X80668181Y-100476338D01*
X80701666Y-100537661D01*
X80704500Y-100564019D01*
X80704500Y-100764181D01*
X80714563Y-100862683D01*
X80767450Y-101022284D01*
X80767455Y-101022295D01*
X80855716Y-101165387D01*
X80855719Y-101165391D01*
X80974608Y-101284280D01*
X80974612Y-101284283D01*
X81117704Y-101372544D01*
X81117707Y-101372545D01*
X81117713Y-101372549D01*
X81277315Y-101425436D01*
X81375826Y-101435500D01*
X81375831Y-101435500D01*
X81909169Y-101435500D01*
X81909174Y-101435500D01*
X82007685Y-101425436D01*
X82167287Y-101372549D01*
X82310391Y-101284281D01*
X82342319Y-101252353D01*
X82403642Y-101218868D01*
X82473334Y-101223852D01*
X82517681Y-101252353D01*
X82549608Y-101284280D01*
X82549612Y-101284283D01*
X82692704Y-101372544D01*
X82692707Y-101372545D01*
X82692713Y-101372549D01*
X82852315Y-101425436D01*
X82950826Y-101435500D01*
X83150981Y-101435500D01*
X83218020Y-101455185D01*
X83238662Y-101471819D01*
X84194662Y-102427819D01*
X84228147Y-102489142D01*
X84223163Y-102558834D01*
X84181291Y-102614767D01*
X84115827Y-102639184D01*
X84106981Y-102639500D01*
X73984500Y-102639500D01*
X73917461Y-102619815D01*
X73871706Y-102567011D01*
X73860500Y-102515500D01*
X73860500Y-63504500D01*
X73880185Y-63437461D01*
X73932989Y-63391706D01*
X73984500Y-63380500D01*
X122545500Y-63380500D01*
X122612539Y-63400185D01*
G37*
%TD.AperFunction*%
%TA.AperFunction,Conductor*%
G36*
X112885520Y-65520185D02*
G01*
X112906162Y-65536819D01*
X117743181Y-70373838D01*
X117776666Y-70435161D01*
X117779500Y-70461519D01*
X117779500Y-78966452D01*
X117759815Y-79033491D01*
X117728385Y-79066770D01*
X117600213Y-79159890D01*
X117449890Y-79310213D01*
X117324951Y-79482179D01*
X117228444Y-79671585D01*
X117162753Y-79873760D01*
X117129500Y-80083713D01*
X117129500Y-80296286D01*
X117145523Y-80397455D01*
X117162754Y-80506243D01*
X117194716Y-80604612D01*
X117228444Y-80708414D01*
X117324951Y-80897820D01*
X117449890Y-81069786D01*
X117600213Y-81220109D01*
X117772179Y-81345048D01*
X117772181Y-81345049D01*
X117772184Y-81345051D01*
X117781493Y-81349794D01*
X117832290Y-81397766D01*
X117849087Y-81465587D01*
X117826552Y-81531722D01*
X117781505Y-81570760D01*
X117772446Y-81575376D01*
X117772440Y-81575380D01*
X117718282Y-81614727D01*
X117718282Y-81614728D01*
X118350591Y-82247037D01*
X118287007Y-82264075D01*
X118172993Y-82329901D01*
X118079901Y-82422993D01*
X118014075Y-82537007D01*
X117997037Y-82600591D01*
X117364728Y-81968282D01*
X117364727Y-81968282D01*
X117325380Y-82022439D01*
X117228904Y-82211782D01*
X117163242Y-82413869D01*
X117163242Y-82413872D01*
X117130000Y-82623753D01*
X117130000Y-82836246D01*
X117163242Y-83046127D01*
X117163242Y-83046130D01*
X117228904Y-83248217D01*
X117325375Y-83437550D01*
X117364728Y-83491716D01*
X117997037Y-82859408D01*
X118014075Y-82922993D01*
X118079901Y-83037007D01*
X118172993Y-83130099D01*
X118287007Y-83195925D01*
X118350590Y-83212962D01*
X117718282Y-83845269D01*
X117718282Y-83845270D01*
X117772452Y-83884626D01*
X117772451Y-83884626D01*
X117781495Y-83889234D01*
X117832292Y-83937208D01*
X117849087Y-84005029D01*
X117826550Y-84071164D01*
X117781499Y-84110202D01*
X117772182Y-84114949D01*
X117600213Y-84239890D01*
X117449892Y-84390211D01*
X117381573Y-84484247D01*
X117356770Y-84518385D01*
X117301442Y-84561051D01*
X117256453Y-84569500D01*
X117051003Y-84569500D01*
X116942590Y-84591065D01*
X116942589Y-84591065D01*
X116915671Y-84596420D01*
X116788190Y-84649224D01*
X116673454Y-84725887D01*
X116673453Y-84725888D01*
X115306162Y-86093181D01*
X115244839Y-86126666D01*
X115218481Y-86129500D01*
X114181004Y-86129500D01*
X114045677Y-86156418D01*
X114045667Y-86156421D01*
X113918192Y-86209222D01*
X113803454Y-86285887D01*
X113803453Y-86285888D01*
X112846162Y-87243181D01*
X112784839Y-87276666D01*
X112758481Y-87279500D01*
X106854500Y-87279500D01*
X106787461Y-87259815D01*
X106741706Y-87207011D01*
X106730500Y-87155500D01*
X106730500Y-87064038D01*
X106726219Y-87037011D01*
X106691090Y-86815215D01*
X106613241Y-86575621D01*
X106613239Y-86575618D01*
X106613239Y-86575616D01*
X106558689Y-86468556D01*
X106498870Y-86351155D01*
X106451450Y-86285887D01*
X106350798Y-86147350D01*
X106350794Y-86147345D01*
X106172654Y-85969205D01*
X106172649Y-85969201D01*
X105968846Y-85821130D01*
X105898204Y-85785135D01*
X105847408Y-85737160D01*
X105830500Y-85674651D01*
X105830500Y-82391519D01*
X105850185Y-82324480D01*
X105866819Y-82303838D01*
X106304112Y-81866545D01*
X106304114Y-81866543D01*
X106380775Y-81751811D01*
X106396980Y-81712690D01*
X106433578Y-81624332D01*
X106433580Y-81624328D01*
X106444235Y-81570763D01*
X106460500Y-81488996D01*
X106460500Y-73626779D01*
X106480185Y-73559740D01*
X106532989Y-73513985D01*
X106602147Y-73504041D01*
X106665703Y-73533066D01*
X106694985Y-73570485D01*
X106728766Y-73636786D01*
X106759357Y-73678890D01*
X106830586Y-73776928D01*
X106953072Y-73899414D01*
X107093212Y-74001232D01*
X107247555Y-74079873D01*
X107412299Y-74133402D01*
X107583389Y-74160500D01*
X107583390Y-74160500D01*
X107756610Y-74160500D01*
X107756611Y-74160500D01*
X107927701Y-74133402D01*
X108092445Y-74079873D01*
X108246788Y-74001232D01*
X108386928Y-73899414D01*
X108509414Y-73776928D01*
X108611232Y-73636788D01*
X108689873Y-73482445D01*
X108743402Y-73317701D01*
X108770500Y-73146611D01*
X108770500Y-72973389D01*
X108743402Y-72802299D01*
X108689873Y-72637555D01*
X108611232Y-72483212D01*
X108509414Y-72343072D01*
X108386928Y-72220586D01*
X108246788Y-72118768D01*
X108092445Y-72040127D01*
X107927701Y-71986598D01*
X107927699Y-71986597D01*
X107927698Y-71986597D01*
X107796271Y-71965781D01*
X107756611Y-71959500D01*
X107583389Y-71959500D01*
X107543728Y-71965781D01*
X107412302Y-71986597D01*
X107247552Y-72040128D01*
X107093211Y-72118768D01*
X107048843Y-72151004D01*
X106953072Y-72220586D01*
X106953070Y-72220588D01*
X106953069Y-72220588D01*
X106830588Y-72343069D01*
X106830588Y-72343070D01*
X106830586Y-72343072D01*
X106786859Y-72403256D01*
X106728768Y-72483211D01*
X106694985Y-72549515D01*
X106647010Y-72600311D01*
X106579189Y-72617106D01*
X106513054Y-72594569D01*
X106469603Y-72539853D01*
X106460500Y-72493220D01*
X106460500Y-70971005D01*
X106451221Y-70924361D01*
X106451221Y-70924359D01*
X106437731Y-70856543D01*
X106433580Y-70835672D01*
X106433578Y-70835667D01*
X106380777Y-70708192D01*
X106304112Y-70593454D01*
X105866819Y-70156161D01*
X105833334Y-70094838D01*
X105830500Y-70068480D01*
X105830500Y-69495347D01*
X105850185Y-69428308D01*
X105898206Y-69384862D01*
X105968845Y-69348870D01*
X106172656Y-69200793D01*
X106350793Y-69022656D01*
X106498870Y-68818845D01*
X106613241Y-68594379D01*
X106691090Y-68354785D01*
X106730500Y-68105962D01*
X106730500Y-67854038D01*
X106691090Y-67605215D01*
X106613241Y-67365621D01*
X106613239Y-67365618D01*
X106613239Y-67365616D01*
X106571747Y-67284184D01*
X106498870Y-67141155D01*
X106479952Y-67115117D01*
X106350798Y-66937350D01*
X106350794Y-66937345D01*
X106172654Y-66759205D01*
X106172649Y-66759201D01*
X105968848Y-66611132D01*
X105968847Y-66611131D01*
X105968845Y-66611130D01*
X105898747Y-66575413D01*
X105744383Y-66496760D01*
X105504785Y-66418910D01*
X105255962Y-66379500D01*
X105004038Y-66379500D01*
X104879626Y-66399205D01*
X104755214Y-66418910D01*
X104515616Y-66496760D01*
X104291151Y-66611132D01*
X104087350Y-66759201D01*
X104087345Y-66759205D01*
X103909205Y-66937345D01*
X103909201Y-66937350D01*
X103761132Y-67141151D01*
X103646760Y-67365616D01*
X103568910Y-67605214D01*
X103529500Y-67854038D01*
X103529500Y-68105961D01*
X103568910Y-68354785D01*
X103646760Y-68594383D01*
X103761132Y-68818848D01*
X103909201Y-69022649D01*
X103909205Y-69022654D01*
X104087345Y-69200794D01*
X104087350Y-69200798D01*
X104291153Y-69348869D01*
X104361794Y-69384862D01*
X104412590Y-69432836D01*
X104429500Y-69495347D01*
X104429500Y-70341006D01*
X104429500Y-70478994D01*
X104429500Y-70478996D01*
X104429499Y-70478996D01*
X104456418Y-70614322D01*
X104456421Y-70614332D01*
X104509222Y-70741807D01*
X104585887Y-70856545D01*
X104585888Y-70856546D01*
X105023181Y-71293838D01*
X105056666Y-71355161D01*
X105059500Y-71381519D01*
X105059500Y-72684093D01*
X105039815Y-72751132D01*
X104987011Y-72796887D01*
X104917853Y-72806831D01*
X104854297Y-72777806D01*
X104816523Y-72719028D01*
X104812561Y-72700279D01*
X104807020Y-72658192D01*
X104801993Y-72620007D01*
X104725639Y-72335048D01*
X104612743Y-72062493D01*
X104557309Y-71966479D01*
X104465238Y-71807006D01*
X104285647Y-71572959D01*
X104285641Y-71572952D01*
X104077047Y-71364358D01*
X104077040Y-71364352D01*
X103842993Y-71184761D01*
X103587510Y-71037258D01*
X103587500Y-71037254D01*
X103314961Y-70924364D01*
X103314954Y-70924362D01*
X103314952Y-70924361D01*
X103029993Y-70848007D01*
X102981113Y-70841571D01*
X102737513Y-70809500D01*
X102737506Y-70809500D01*
X102442494Y-70809500D01*
X102442486Y-70809500D01*
X102164085Y-70846153D01*
X102150007Y-70848007D01*
X102118143Y-70856545D01*
X101865048Y-70924361D01*
X101865038Y-70924364D01*
X101592499Y-71037254D01*
X101592489Y-71037258D01*
X101337006Y-71184761D01*
X101102959Y-71364352D01*
X101102952Y-71364358D01*
X100894358Y-71572952D01*
X100894352Y-71572959D01*
X100714761Y-71807006D01*
X100567258Y-72062489D01*
X100567254Y-72062499D01*
X100454364Y-72335038D01*
X100454361Y-72335048D01*
X100378785Y-72617106D01*
X100378008Y-72620004D01*
X100378006Y-72620015D01*
X100339500Y-72912486D01*
X100339500Y-73207513D01*
X100367054Y-73416800D01*
X100378007Y-73499993D01*
X100452212Y-73776930D01*
X100454361Y-73784951D01*
X100454364Y-73784961D01*
X100567254Y-74057500D01*
X100567258Y-74057510D01*
X100714761Y-74312993D01*
X100894352Y-74547040D01*
X100894358Y-74547047D01*
X101102952Y-74755641D01*
X101102959Y-74755647D01*
X101337006Y-74935238D01*
X101592489Y-75082741D01*
X101592490Y-75082741D01*
X101592493Y-75082743D01*
X101865048Y-75195639D01*
X102150007Y-75271993D01*
X102442494Y-75310500D01*
X102442501Y-75310500D01*
X102737499Y-75310500D01*
X102737506Y-75310500D01*
X103029993Y-75271993D01*
X103314952Y-75195639D01*
X103587507Y-75082743D01*
X103842994Y-74935238D01*
X104077042Y-74755646D01*
X104285646Y-74547042D01*
X104465238Y-74312994D01*
X104612743Y-74057507D01*
X104725639Y-73784952D01*
X104801993Y-73499993D01*
X104812561Y-73419720D01*
X104840827Y-73355824D01*
X104899152Y-73317353D01*
X104969017Y-73316522D01*
X105028240Y-73353594D01*
X105058019Y-73416800D01*
X105059500Y-73435906D01*
X105059500Y-81078480D01*
X105039815Y-81145519D01*
X105023181Y-81166161D01*
X104585890Y-81603451D01*
X104585887Y-81603454D01*
X104512902Y-81712686D01*
X104512899Y-81712690D01*
X104509227Y-81718183D01*
X104509226Y-81718186D01*
X104456420Y-81845671D01*
X104456418Y-81845677D01*
X104429500Y-81981004D01*
X104429500Y-85674651D01*
X104409815Y-85741690D01*
X104361796Y-85785135D01*
X104291153Y-85821130D01*
X104087350Y-85969201D01*
X104087345Y-85969205D01*
X103909205Y-86147345D01*
X103909201Y-86147350D01*
X103761132Y-86351151D01*
X103646760Y-86575616D01*
X103568910Y-86815214D01*
X103529500Y-87064038D01*
X103529500Y-87315961D01*
X103568910Y-87564785D01*
X103646760Y-87804383D01*
X103719042Y-87946243D01*
X103731938Y-88014912D01*
X103705662Y-88079653D01*
X103648555Y-88119910D01*
X103578750Y-88122902D01*
X103520876Y-88090219D01*
X101436546Y-86005888D01*
X101436545Y-86005887D01*
X101321807Y-85929222D01*
X101194332Y-85876421D01*
X101194322Y-85876418D01*
X101058996Y-85849500D01*
X101058994Y-85849500D01*
X101058993Y-85849500D01*
X100821519Y-85849500D01*
X100754480Y-85829815D01*
X100733838Y-85813181D01*
X100256819Y-85336162D01*
X100223334Y-85274839D01*
X100220500Y-85248481D01*
X100220500Y-83080534D01*
X100240185Y-83013495D01*
X100256819Y-82992853D01*
X100344281Y-82905391D01*
X100432549Y-82762287D01*
X100485436Y-82602685D01*
X100495500Y-82504174D01*
X100495500Y-81970826D01*
X100485436Y-81872315D01*
X100432549Y-81712713D01*
X100432545Y-81712707D01*
X100432544Y-81712704D01*
X100344283Y-81569612D01*
X100344280Y-81569608D01*
X100312353Y-81537681D01*
X100278868Y-81476358D01*
X100283852Y-81406666D01*
X100312353Y-81362319D01*
X100324880Y-81349792D01*
X100344281Y-81330391D01*
X100432549Y-81187287D01*
X100485436Y-81027685D01*
X100495500Y-80929174D01*
X100495500Y-80395826D01*
X100485436Y-80297315D01*
X100432549Y-80137713D01*
X100432545Y-80137707D01*
X100432544Y-80137704D01*
X100344283Y-79994612D01*
X100344280Y-79994608D01*
X100225391Y-79875719D01*
X100225387Y-79875716D01*
X100082295Y-79787455D01*
X100082289Y-79787452D01*
X100082287Y-79787451D01*
X99922685Y-79734564D01*
X99922683Y-79734563D01*
X99824181Y-79724500D01*
X99824174Y-79724500D01*
X99215826Y-79724500D01*
X99215818Y-79724500D01*
X99117316Y-79734563D01*
X99117315Y-79734564D01*
X99038219Y-79760773D01*
X98957715Y-79787450D01*
X98957710Y-79787452D01*
X98862040Y-79846463D01*
X98794647Y-79864903D01*
X98727984Y-79843980D01*
X98709262Y-79828605D01*
X95396819Y-76516162D01*
X95363334Y-76454839D01*
X95360500Y-76428481D01*
X95360500Y-73291517D01*
X95380185Y-73224478D01*
X95396814Y-73203841D01*
X97237219Y-71363435D01*
X97298540Y-71329952D01*
X97368232Y-71334936D01*
X97424165Y-71376808D01*
X97425216Y-71378233D01*
X97559201Y-71562649D01*
X97559205Y-71562654D01*
X97559207Y-71562656D01*
X97737344Y-71740793D01*
X97737345Y-71740794D01*
X97737344Y-71740794D01*
X97743661Y-71745383D01*
X97786327Y-71800714D01*
X97792305Y-71870327D01*
X97759699Y-71932122D01*
X97698860Y-71966479D01*
X97651378Y-71968174D01*
X97596611Y-71959500D01*
X97423389Y-71959500D01*
X97383728Y-71965781D01*
X97252302Y-71986597D01*
X97087552Y-72040128D01*
X96933211Y-72118768D01*
X96888843Y-72151004D01*
X96793072Y-72220586D01*
X96793070Y-72220588D01*
X96793069Y-72220588D01*
X96670588Y-72343069D01*
X96670588Y-72343070D01*
X96670586Y-72343072D01*
X96626859Y-72403256D01*
X96568768Y-72483211D01*
X96490128Y-72637552D01*
X96436597Y-72802302D01*
X96409500Y-72973389D01*
X96409500Y-73146611D01*
X96436598Y-73317701D01*
X96490127Y-73482445D01*
X96568768Y-73636788D01*
X96670586Y-73776928D01*
X96793072Y-73899414D01*
X96933212Y-74001232D01*
X97087555Y-74079873D01*
X97252299Y-74133402D01*
X97423389Y-74160500D01*
X97423390Y-74160500D01*
X97596610Y-74160500D01*
X97596611Y-74160500D01*
X97767701Y-74133402D01*
X97932445Y-74079873D01*
X98086788Y-74001232D01*
X98226928Y-73899414D01*
X98349414Y-73776928D01*
X98451232Y-73636788D01*
X98529873Y-73482445D01*
X98583402Y-73317701D01*
X98610500Y-73146611D01*
X98610500Y-72973389D01*
X98583402Y-72802299D01*
X98529873Y-72637555D01*
X98451232Y-72483212D01*
X98349414Y-72343072D01*
X98297482Y-72291140D01*
X98263997Y-72229817D01*
X98268981Y-72160125D01*
X98310853Y-72104192D01*
X98376317Y-72079775D01*
X98404561Y-72080986D01*
X98405212Y-72081089D01*
X98405215Y-72081090D01*
X98654038Y-72120500D01*
X98654039Y-72120500D01*
X98905961Y-72120500D01*
X98905962Y-72120500D01*
X99154785Y-72081090D01*
X99394379Y-72003241D01*
X99618845Y-71888870D01*
X99822656Y-71740793D01*
X100000793Y-71562656D01*
X100148870Y-71358845D01*
X100263241Y-71134379D01*
X100341090Y-70894785D01*
X100380500Y-70645962D01*
X100380500Y-70394038D01*
X100341090Y-70145215D01*
X100263241Y-69905621D01*
X100263239Y-69905618D01*
X100263239Y-69905616D01*
X100203404Y-69788185D01*
X100148870Y-69681155D01*
X100013873Y-69495347D01*
X100000798Y-69477350D01*
X100000794Y-69477345D01*
X99822654Y-69299205D01*
X99822649Y-69299201D01*
X99618848Y-69151132D01*
X99618847Y-69151131D01*
X99618845Y-69151130D01*
X99492086Y-69086543D01*
X99394383Y-69036760D01*
X99154785Y-68958910D01*
X98905962Y-68919500D01*
X98654038Y-68919500D01*
X98529626Y-68939205D01*
X98405214Y-68958910D01*
X98165616Y-69036760D01*
X97941151Y-69151132D01*
X97737350Y-69299201D01*
X97737345Y-69299205D01*
X97559205Y-69477345D01*
X97559201Y-69477350D01*
X97411132Y-69681151D01*
X97375137Y-69751795D01*
X97327162Y-69802591D01*
X97264652Y-69819500D01*
X97021003Y-69819500D01*
X96919939Y-69839602D01*
X96919928Y-69839605D01*
X96912591Y-69841065D01*
X96885671Y-69846420D01*
X96838677Y-69865886D01*
X96834340Y-69867682D01*
X96834332Y-69867685D01*
X96758191Y-69899223D01*
X96662061Y-69963456D01*
X96643457Y-69975886D01*
X96643451Y-69975891D01*
X94156016Y-72463326D01*
X94075888Y-72543453D01*
X94075887Y-72543454D01*
X93999222Y-72658192D01*
X93946421Y-72785667D01*
X93946418Y-72785677D01*
X93919500Y-72921003D01*
X93919500Y-72921006D01*
X93919500Y-73058994D01*
X93919500Y-73058996D01*
X93919499Y-73058996D01*
X93946418Y-73194322D01*
X93946420Y-73194329D01*
X93950060Y-73203115D01*
X93959500Y-73250570D01*
X93959500Y-76701006D01*
X93959500Y-76838994D01*
X93959500Y-76838996D01*
X93959499Y-76838996D01*
X93986418Y-76974322D01*
X93986421Y-76974332D01*
X94039222Y-77101807D01*
X94115887Y-77216545D01*
X94115888Y-77216546D01*
X96209551Y-79310208D01*
X98105957Y-81206614D01*
X98126147Y-81220104D01*
X98220689Y-81283275D01*
X98310832Y-81320613D01*
X98316855Y-81323108D01*
X98316859Y-81323110D01*
X98348161Y-81336076D01*
X98348171Y-81336080D01*
X98375091Y-81341434D01*
X98465437Y-81359405D01*
X98483506Y-81363000D01*
X98483507Y-81363000D01*
X98602966Y-81363000D01*
X98670005Y-81382685D01*
X98715760Y-81435489D01*
X98725704Y-81504647D01*
X98699040Y-81563031D01*
X98700197Y-81563946D01*
X98695716Y-81569612D01*
X98607455Y-81712704D01*
X98607451Y-81712713D01*
X98554564Y-81872315D01*
X98554564Y-81872316D01*
X98554563Y-81872316D01*
X98544500Y-81970818D01*
X98544500Y-82504181D01*
X98554563Y-82602683D01*
X98607450Y-82762284D01*
X98607455Y-82762295D01*
X98695716Y-82905387D01*
X98695719Y-82905391D01*
X98783181Y-82992853D01*
X98816666Y-83054176D01*
X98819500Y-83080534D01*
X98819500Y-85521006D01*
X98819500Y-85658994D01*
X98826227Y-85692814D01*
X98827917Y-85701309D01*
X98821689Y-85770901D01*
X98778825Y-85826078D01*
X98712935Y-85849322D01*
X98706299Y-85849500D01*
X96291004Y-85849500D01*
X96155677Y-85876418D01*
X96155667Y-85876421D01*
X96028192Y-85929222D01*
X95913454Y-86005887D01*
X95913453Y-86005888D01*
X93306162Y-88613181D01*
X93244839Y-88646666D01*
X93218481Y-88649500D01*
X87015738Y-88649500D01*
X86948699Y-88629815D01*
X86902944Y-88577011D01*
X86893000Y-88507853D01*
X86922025Y-88444297D01*
X86942852Y-88425182D01*
X86954025Y-88417063D01*
X86962656Y-88410793D01*
X87140793Y-88232656D01*
X87288870Y-88028845D01*
X87403241Y-87804379D01*
X87481090Y-87564785D01*
X87520500Y-87315962D01*
X87520500Y-87064038D01*
X87481090Y-86815215D01*
X87403241Y-86575621D01*
X87403239Y-86575618D01*
X87403239Y-86575616D01*
X87348689Y-86468556D01*
X87288870Y-86351155D01*
X87241450Y-86285887D01*
X87140798Y-86147350D01*
X87140794Y-86147345D01*
X86962654Y-85969205D01*
X86962649Y-85969201D01*
X86758846Y-85821130D01*
X86688204Y-85785135D01*
X86637408Y-85737160D01*
X86620500Y-85674651D01*
X86620500Y-84581519D01*
X86640185Y-84514480D01*
X86656819Y-84493838D01*
X87094112Y-84056545D01*
X87094114Y-84056543D01*
X87170775Y-83941811D01*
X87180017Y-83919500D01*
X87223579Y-83814330D01*
X87223580Y-83814328D01*
X87250500Y-83678994D01*
X87250500Y-83541006D01*
X87250500Y-73626779D01*
X87270185Y-73559740D01*
X87322989Y-73513985D01*
X87392147Y-73504041D01*
X87455703Y-73533066D01*
X87484985Y-73570485D01*
X87518766Y-73636786D01*
X87549357Y-73678890D01*
X87620586Y-73776928D01*
X87743072Y-73899414D01*
X87883212Y-74001232D01*
X88037555Y-74079873D01*
X88202299Y-74133402D01*
X88373389Y-74160500D01*
X88373390Y-74160500D01*
X88546610Y-74160500D01*
X88546611Y-74160500D01*
X88717701Y-74133402D01*
X88882445Y-74079873D01*
X89036788Y-74001232D01*
X89176928Y-73899414D01*
X89299414Y-73776928D01*
X89401232Y-73636788D01*
X89479873Y-73482445D01*
X89533402Y-73317701D01*
X89560500Y-73146611D01*
X89560500Y-72973389D01*
X89533402Y-72802299D01*
X89479873Y-72637555D01*
X89401232Y-72483212D01*
X89299414Y-72343072D01*
X89176928Y-72220586D01*
X89036788Y-72118768D01*
X88882445Y-72040127D01*
X88717701Y-71986598D01*
X88717699Y-71986597D01*
X88717698Y-71986597D01*
X88586271Y-71965781D01*
X88546611Y-71959500D01*
X88373389Y-71959500D01*
X88333728Y-71965781D01*
X88202302Y-71986597D01*
X88037552Y-72040128D01*
X87883211Y-72118768D01*
X87838843Y-72151004D01*
X87743072Y-72220586D01*
X87743070Y-72220588D01*
X87743069Y-72220588D01*
X87620588Y-72343069D01*
X87620588Y-72343070D01*
X87620586Y-72343072D01*
X87576859Y-72403256D01*
X87518768Y-72483211D01*
X87484985Y-72549515D01*
X87437010Y-72600311D01*
X87369189Y-72617106D01*
X87303054Y-72594569D01*
X87259603Y-72539853D01*
X87250500Y-72493220D01*
X87250500Y-70811004D01*
X87223581Y-70675677D01*
X87223580Y-70675676D01*
X87223580Y-70675672D01*
X87189526Y-70593457D01*
X87170777Y-70548193D01*
X87170776Y-70548191D01*
X87135827Y-70495886D01*
X87135826Y-70495885D01*
X87094114Y-70433457D01*
X87094112Y-70433455D01*
X87094110Y-70433452D01*
X86656819Y-69996161D01*
X86623334Y-69934838D01*
X86620500Y-69908480D01*
X86620500Y-69495347D01*
X86623395Y-69485484D01*
X86622134Y-69475283D01*
X86633073Y-69452527D01*
X86640185Y-69428308D01*
X86648756Y-69419904D01*
X86652406Y-69412312D01*
X86671185Y-69397912D01*
X86679531Y-69389730D01*
X86683769Y-69387122D01*
X86758845Y-69348870D01*
X86830022Y-69297156D01*
X86834084Y-69294658D01*
X86837092Y-69293838D01*
X86851594Y-69285717D01*
X86911811Y-69260775D01*
X87026543Y-69184114D01*
X87124114Y-69086543D01*
X87200775Y-68971811D01*
X87225717Y-68911594D01*
X87239955Y-68886170D01*
X87288870Y-68818845D01*
X87403241Y-68594379D01*
X87481090Y-68354785D01*
X87520500Y-68105962D01*
X87520500Y-67854038D01*
X87481090Y-67605215D01*
X87456589Y-67529812D01*
X87454595Y-67459973D01*
X87486838Y-67403817D01*
X89353838Y-65536819D01*
X89415161Y-65503334D01*
X89441519Y-65500500D01*
X112818481Y-65500500D01*
X112885520Y-65520185D01*
G37*
%TD.AperFunction*%
%TD*%
M02*
