%TF.GenerationSoftware,KiCad,Pcbnew,9.0.2*%
%TF.CreationDate,2026-01-15T22:09:02+01:00*%
%TF.ProjectId,PCB,5043422e-6b69-4636-9164-5f7063625858,rev?*%
%TF.SameCoordinates,Original*%
%TF.FileFunction,Legend,Top*%
%TF.FilePolarity,Positive*%
%FSLAX46Y46*%
G04 Gerber Fmt 4.6, Leading zero omitted, Abs format (unit mm)*
G04 Created by KiCad (PCBNEW 9.0.2) date 2026-01-15 22:09:02*
%MOMM*%
%LPD*%
G01*
G04 APERTURE LIST*
%ADD10C,0.150000*%
%ADD11C,0.120000*%
G04 APERTURE END LIST*
D10*
X176403167Y-91133200D02*
X176546024Y-91180819D01*
X176546024Y-91180819D02*
X176784119Y-91180819D01*
X176784119Y-91180819D02*
X176879357Y-91133200D01*
X176879357Y-91133200D02*
X176926976Y-91085580D01*
X176926976Y-91085580D02*
X176974595Y-90990342D01*
X176974595Y-90990342D02*
X176974595Y-90895104D01*
X176974595Y-90895104D02*
X176926976Y-90799866D01*
X176926976Y-90799866D02*
X176879357Y-90752247D01*
X176879357Y-90752247D02*
X176784119Y-90704628D01*
X176784119Y-90704628D02*
X176593643Y-90657009D01*
X176593643Y-90657009D02*
X176498405Y-90609390D01*
X176498405Y-90609390D02*
X176450786Y-90561771D01*
X176450786Y-90561771D02*
X176403167Y-90466533D01*
X176403167Y-90466533D02*
X176403167Y-90371295D01*
X176403167Y-90371295D02*
X176450786Y-90276057D01*
X176450786Y-90276057D02*
X176498405Y-90228438D01*
X176498405Y-90228438D02*
X176593643Y-90180819D01*
X176593643Y-90180819D02*
X176831738Y-90180819D01*
X176831738Y-90180819D02*
X176974595Y-90228438D01*
X177307929Y-90180819D02*
X177546024Y-91180819D01*
X177546024Y-91180819D02*
X177736500Y-90466533D01*
X177736500Y-90466533D02*
X177926976Y-91180819D01*
X177926976Y-91180819D02*
X178165072Y-90180819D01*
X178450786Y-90180819D02*
X179069833Y-90180819D01*
X179069833Y-90180819D02*
X178736500Y-90561771D01*
X178736500Y-90561771D02*
X178879357Y-90561771D01*
X178879357Y-90561771D02*
X178974595Y-90609390D01*
X178974595Y-90609390D02*
X179022214Y-90657009D01*
X179022214Y-90657009D02*
X179069833Y-90752247D01*
X179069833Y-90752247D02*
X179069833Y-90990342D01*
X179069833Y-90990342D02*
X179022214Y-91085580D01*
X179022214Y-91085580D02*
X178974595Y-91133200D01*
X178974595Y-91133200D02*
X178879357Y-91180819D01*
X178879357Y-91180819D02*
X178593643Y-91180819D01*
X178593643Y-91180819D02*
X178498405Y-91133200D01*
X178498405Y-91133200D02*
X178450786Y-91085580D01*
D11*
%TO.C,R3*%
X181573500Y-97382064D02*
X181573500Y-96927936D01*
X183043500Y-97382064D02*
X183043500Y-96927936D01*
%TO.C,U4*%
X180610500Y-102259500D02*
X180280500Y-102499500D01*
X180280500Y-102019500D01*
X180610500Y-102259500D01*
G36*
X180610500Y-102259500D02*
G01*
X180280500Y-102499500D01*
X180280500Y-102019500D01*
X180610500Y-102259500D01*
G37*
X183680500Y-100959500D02*
X183680500Y-100159500D01*
X183680500Y-100959500D02*
X183680500Y-101759500D01*
X180560500Y-100959500D02*
X180560500Y-100159500D01*
X180560500Y-100959500D02*
X180560500Y-101759500D01*
%TO.C,R4*%
X179233500Y-98485064D02*
X179233500Y-98030936D01*
X177763500Y-98485064D02*
X177763500Y-98030936D01*
%TO.C,SW4*%
X174021500Y-94842500D02*
X172821500Y-94842500D01*
X171221500Y-94842500D02*
X170021500Y-94842500D01*
X170021500Y-94842500D02*
X170021500Y-101242500D01*
X174021500Y-101242500D02*
X174021500Y-94842500D01*
X172821500Y-101242500D02*
X174021500Y-101242500D01*
X170021500Y-101242500D02*
X171221500Y-101242500D01*
%TO.C,SW3*%
X174536500Y-91726000D02*
X174536500Y-92926000D01*
X174536500Y-94526000D02*
X174536500Y-95726000D01*
X174536500Y-95726000D02*
X180936500Y-95726000D01*
X180936500Y-91726000D02*
X174536500Y-91726000D01*
X180936500Y-92926000D02*
X180936500Y-91726000D01*
X180936500Y-95726000D02*
X180936500Y-94526000D01*
%TO.C,R5*%
X174725064Y-103224000D02*
X174270936Y-103224000D01*
X174725064Y-101754000D02*
X174270936Y-101754000D01*
%TO.C,R2*%
X177138000Y-98110936D02*
X177138000Y-98565064D01*
X175668000Y-98110936D02*
X175668000Y-98565064D01*
%TO.C,C1*%
X179580000Y-101771233D02*
X179580000Y-102063767D01*
X178560000Y-101771233D02*
X178560000Y-102063767D01*
%TO.C,D4*%
X183478500Y-96355000D02*
X183478500Y-98640000D01*
X184948500Y-98640000D02*
X184948500Y-96355000D01*
X183478500Y-98640000D02*
X184948500Y-98640000D01*
%TO.C,D5*%
X176430000Y-100927000D02*
X176430000Y-103212000D01*
X177900000Y-103212000D02*
X177900000Y-100927000D01*
X176430000Y-103212000D02*
X177900000Y-103212000D01*
%TO.C,C2*%
X182162233Y-105666000D02*
X182454767Y-105666000D01*
X182162233Y-104646000D02*
X182454767Y-104646000D01*
%TO.C,J1*%
X171210500Y-112688500D02*
X171210500Y-113738500D01*
X181755500Y-109518500D02*
X172955500Y-109518500D01*
X181755500Y-109518500D02*
X181755500Y-108763500D01*
X183500500Y-112688500D02*
X183500500Y-113738500D01*
%TD*%
M02*
