%TF.GenerationSoftware,KiCad,Pcbnew,9.0.2*%
%TF.CreationDate,2026-01-15T22:12:01+01:00*%
%TF.ProjectId,PCB,5043422e-6b69-4636-9164-5f7063625858,rev?*%
%TF.SameCoordinates,Original*%
%TF.FileFunction,Soldermask,Bot*%
%TF.FilePolarity,Negative*%
%FSLAX46Y46*%
G04 Gerber Fmt 4.6, Leading zero omitted, Abs format (unit mm)*
G04 Created by KiCad (PCBNEW 9.0.2) date 2026-01-15 22:12:01*
%MOMM*%
%LPD*%
G01*
G04 APERTURE LIST*
G04 Aperture macros list*
%AMOutline5P*
0 Free polygon, 5 corners , with rotation*
0 The origin of the aperture is its center*
0 number of corners: always 5*
0 $1 to $10 corner X, Y*
0 $11 Rotation angle, in degrees counterclockwise*
0 create outline with 5 corners*
4,1,5,$1,$2,$3,$4,$5,$6,$7,$8,$9,$10,$1,$2,$11*%
%AMOutline6P*
0 Free polygon, 6 corners , with rotation*
0 The origin of the aperture is its center*
0 number of corners: always 6*
0 $1 to $12 corner X, Y*
0 $13 Rotation angle, in degrees counterclockwise*
0 create outline with 6 corners*
4,1,6,$1,$2,$3,$4,$5,$6,$7,$8,$9,$10,$11,$12,$1,$2,$13*%
%AMOutline7P*
0 Free polygon, 7 corners , with rotation*
0 The origin of the aperture is its center*
0 number of corners: always 7*
0 $1 to $14 corner X, Y*
0 $15 Rotation angle, in degrees counterclockwise*
0 create outline with 7 corners*
4,1,7,$1,$2,$3,$4,$5,$6,$7,$8,$9,$10,$11,$12,$13,$14,$1,$2,$15*%
%AMOutline8P*
0 Free polygon, 8 corners , with rotation*
0 The origin of the aperture is its center*
0 number of corners: always 8*
0 $1 to $16 corner X, Y*
0 $17 Rotation angle, in degrees counterclockwise*
0 create outline with 8 corners*
4,1,8,$1,$2,$3,$4,$5,$6,$7,$8,$9,$10,$11,$12,$13,$14,$15,$16,$1,$2,$17*%
G04 Aperture macros list end*
%ADD10C,1.100000*%
%ADD11O,1.900000X3.500000*%
%ADD12R,0.800000X0.400000*%
%ADD13R,0.400000X0.800000*%
%ADD14R,1.200000X1.200000*%
%ADD15Outline5P,-0.600000X0.600000X0.600000X0.600000X0.600000X-0.600000X-0.204000X-0.600000X-0.600000X-0.204000X180.000000*%
%ADD16R,0.800000X0.800000*%
G04 APERTURE END LIST*
D10*
%TO.C,J1*%
X179655500Y-110638500D03*
X175055500Y-110638500D03*
D11*
X183055500Y-110638500D03*
X171655500Y-110638500D03*
%TD*%
D12*
%TO.C,U3*%
X184355500Y-91331000D03*
X184355500Y-92181000D03*
X184355500Y-93031000D03*
X184355500Y-93881000D03*
X184355500Y-94731000D03*
X184355500Y-95581000D03*
X184355500Y-96431000D03*
X184355500Y-97281000D03*
X184355500Y-98131000D03*
X184355500Y-98981000D03*
X184355500Y-99831000D03*
X184355500Y-100681000D03*
X184355500Y-101531000D03*
X184355500Y-102381000D03*
X184355500Y-103231000D03*
D13*
X183305500Y-104281000D03*
X182455500Y-104281000D03*
X181605500Y-104281000D03*
X180755500Y-104281000D03*
X179905500Y-104281000D03*
X179055500Y-104281000D03*
X178205500Y-104281000D03*
X177355500Y-104281000D03*
X176505500Y-104281000D03*
X175655500Y-104281000D03*
X174805500Y-104281000D03*
X173955500Y-104281000D03*
X173105500Y-104281000D03*
X172255500Y-104281000D03*
X171405500Y-104281000D03*
D12*
X170355500Y-103231000D03*
X170355500Y-102381000D03*
X170355500Y-101531000D03*
X170355500Y-100681000D03*
X170355500Y-99831000D03*
X170355500Y-98981000D03*
X170355500Y-98131000D03*
X170355500Y-97281000D03*
X170355500Y-96431000D03*
X170355500Y-95581000D03*
X170355500Y-94731000D03*
X170355500Y-93881000D03*
X170355500Y-93031000D03*
X170355500Y-92181000D03*
X170355500Y-91331000D03*
D13*
X171405500Y-90281000D03*
X172255500Y-90281000D03*
X173105500Y-90281000D03*
X173955500Y-90281000D03*
X174805500Y-90281000D03*
X175655500Y-90281000D03*
X176505500Y-90281000D03*
X177355500Y-90281000D03*
X178205500Y-90281000D03*
X179055500Y-90281000D03*
X179905500Y-90281000D03*
X180755500Y-90281000D03*
X181605500Y-90281000D03*
X182455500Y-90281000D03*
X183305500Y-90281000D03*
D14*
X179005500Y-98931000D03*
X179005500Y-97281000D03*
D15*
X179005500Y-95631000D03*
D14*
X177355500Y-98931000D03*
X177355500Y-97281000D03*
X177355500Y-95631000D03*
X175705500Y-98931000D03*
X175705500Y-97281000D03*
X175705500Y-95631000D03*
D16*
X184355500Y-90281000D03*
X184355500Y-104281000D03*
X170355500Y-104281000D03*
X170355500Y-90281000D03*
%TD*%
M02*
