%TF.GenerationSoftware,KiCad,Pcbnew,9.0.2*%
%TF.CreationDate,2026-01-15T22:12:00+01:00*%
%TF.ProjectId,PCB,5043422e-6b69-4636-9164-5f7063625858,rev?*%
%TF.SameCoordinates,Original*%
%TF.FileFunction,Legend,Bot*%
%TF.FilePolarity,Positive*%
%FSLAX46Y46*%
G04 Gerber Fmt 4.6, Leading zero omitted, Abs format (unit mm)*
G04 Created by KiCad (PCBNEW 9.0.2) date 2026-01-15 22:12:00*
%MOMM*%
%LPD*%
G01*
G04 APERTURE LIST*
%ADD10C,0.150000*%
%ADD11C,0.120000*%
G04 APERTURE END LIST*
D10*
X184067404Y-106035819D02*
X184067404Y-106845342D01*
X184067404Y-106845342D02*
X184019785Y-106940580D01*
X184019785Y-106940580D02*
X183972166Y-106988200D01*
X183972166Y-106988200D02*
X183876928Y-107035819D01*
X183876928Y-107035819D02*
X183686452Y-107035819D01*
X183686452Y-107035819D02*
X183591214Y-106988200D01*
X183591214Y-106988200D02*
X183543595Y-106940580D01*
X183543595Y-106940580D02*
X183495976Y-106845342D01*
X183495976Y-106845342D02*
X183495976Y-106035819D01*
X183115023Y-106035819D02*
X182495976Y-106035819D01*
X182495976Y-106035819D02*
X182829309Y-106416771D01*
X182829309Y-106416771D02*
X182686452Y-106416771D01*
X182686452Y-106416771D02*
X182591214Y-106464390D01*
X182591214Y-106464390D02*
X182543595Y-106512009D01*
X182543595Y-106512009D02*
X182495976Y-106607247D01*
X182495976Y-106607247D02*
X182495976Y-106845342D01*
X182495976Y-106845342D02*
X182543595Y-106940580D01*
X182543595Y-106940580D02*
X182591214Y-106988200D01*
X182591214Y-106988200D02*
X182686452Y-107035819D01*
X182686452Y-107035819D02*
X182972166Y-107035819D01*
X182972166Y-107035819D02*
X183067404Y-106988200D01*
X183067404Y-106988200D02*
X183115023Y-106940580D01*
D11*
%TO.C,U3*%
X169555500Y-84381000D02*
X169555500Y-105081000D01*
X169555500Y-105081000D02*
X185155500Y-105081000D01*
X185155500Y-84381000D02*
X169555500Y-84381000D01*
X185155500Y-105081000D02*
X185155500Y-84381000D01*
X185430500Y-84131000D02*
X182980500Y-84131000D01*
X185430500Y-84131000D02*
X185430500Y-86581000D01*
X185666500Y-91571000D02*
X185330500Y-91331000D01*
X185666500Y-91091000D01*
X185666500Y-91571000D01*
G36*
X185666500Y-91571000D02*
G01*
X185330500Y-91331000D01*
X185666500Y-91091000D01*
X185666500Y-91571000D01*
G37*
%TD*%
M02*
